<?xml version="1.0" standalone="no"?>
<!DOCTYPE svg PUBLIC "-//W3C//DTD SVG 20010904//EN"
 "http://www.w3.org/TR/2001/REC-SVG-20010904/DTD/svg10.dtd">
<svg version="1.0" xmlns="http://www.w3.org/2000/svg"
 width="936.000000pt" height="936.000000pt" viewBox="0 0 936.000000 936.000000"
 preserveAspectRatio="xMidYMid meet">
<metadata>
Created by potrace 1.11, written by Peter Selinger 2001-2013
</metadata>
<g transform="translate(0.000000,936.000000) scale(0.100000,-0.100000)"
fill="#000000" stroke="none">
<path d="M1014 9323 c-16 -16 -16 -104 -10 -1448 7 -1325 9 -1444 27 -1615
193 -1817 771 -3327 1735 -4537 179 -225 311 -372 543 -603 366 -366 730 -664
1150 -944 87 -58 163 -112 171 -120 16 -20 86 -21 97 -2 4 8 78 61 164 119
1618 1083 2678 2624 3178 4623 105 420 182 846 249 1384 l27 215 3 1459 c2
1087 0 1462 -9 1472 -10 12 -565 14 -3660 14 -3432 0 -3649 -1 -3665 -17z
m5851 -870 c42 -131 80 -242 84 -246 4 -4 122 17 262 47 139 30 254 54 255 53
1 -1 -79 -87 -178 -191 l-180 -188 83 -87 c46 -47 126 -130 178 -183 52 -54
92 -100 89 -103 -3 -3 -117 19 -254 49 -137 30 -252 51 -255 47 -4 -3 -42
-114 -84 -246 l-78 -240 -82 245 c-78 236 -82 245 -106 242 -13 -2 -127 -26
-253 -53 -126 -27 -231 -48 -233 -46 -3 4 152 171 295 319 l55 57 -178 186
c-98 102 -176 187 -174 189 2 2 114 -20 249 -50 135 -29 250 -54 255 -54 6 0
46 110 90 245 43 135 79 245 81 245 1 0 37 -107 79 -237z m-3890 70 c68 -15
199 -62 193 -69 -2 -2 -37 -8 -78 -15 -103 -16 -217 -59 -300 -114 -212 -141
-334 -416 -300 -674 22 -171 81 -291 198 -408 108 -109 268 -181 457 -209 l50
-7 -52 -23 c-29 -13 -90 -33 -135 -45 -394 -100 -751 74 -928 455 -62 131 -74
191 -75 351 0 132 2 145 31 227 42 118 102 215 188 305 203 214 459 291 751
226z m3695 -1928 c58 -8 138 -24 179 -35 74 -21 228 -87 220 -94 -2 -2 -42 4
-89 14 -764 166 -1725 -175 -3163 -1123 -125 -82 -229 -148 -231 -146 -1 2
-17 29 -35 59 l-33 54 27 22 c15 11 142 93 283 181 1284 801 2220 1153 2842
1068z m240 -129 c149 -28 156 -34 45 -35 -767 -8 -1703 -395 -3016 -1248 -130
-84 -239 -153 -242 -153 -7 0 -87 136 -87 148 0 11 407 281 645 427 393 242
814 465 1129 599 304 128 679 238 911 265 50 6 101 13 115 15 59 10 419 -3
500 -18z m-3908 -542 c22 -11 39 -35 64 -90 l35 -74 62 65 c46 48 69 65 89 65
31 0 55 -21 64 -55 9 -35 -2 -45 -52 -45 -37 0 -51 -6 -75 -29 -16 -16 -29
-40 -29 -53 0 -34 38 -110 108 -217 34 -51 62 -97 62 -101 0 -5 -10 -12 -22
-16 -13 -3 -36 -16 -52 -27 -16 -12 -31 -16 -33 -11 -11 34 -98 168 -138 212
-81 90 -135 104 -188 49 -18 -18 -37 -41 -43 -52 -11 -20 -12 -20 -32 -1 -28
25 -35 48 -23 79 11 29 99 67 156 67 19 0 35 3 35 7 0 3 -21 37 -46 74 -41 59
-46 72 -40 103 7 39 29 66 52 66 8 0 29 -7 46 -16z m457 -597 c15 -7 63 -75
123 -176 91 -150 99 -167 93 -201 -19 -110 -111 -165 -208 -122 -41 18 -56 36
-151 179 -100 150 -105 160 -97 193 15 61 28 86 61 113 27 23 41 27 93 27 34
0 73 -6 86 -13z m-488 -204 c94 -47 282 -253 315 -345 56 -159 28 -766 -41
-884 -43 -73 -133 -122 -262 -143 -70 -11 -88 -3 -214 90 -101 75 -189 162
-254 253 -38 54 -45 70 -34 77 8 5 21 9 30 9 8 0 47 11 85 24 214 72 454 249
547 402 39 65 43 87 26 147 -13 47 -46 70 -91 63 -32 -6 -35 -3 -115 96 -44
57 -100 126 -123 155 l-41 52 28 15 c41 22 83 19 144 -11z m272 -75 c29 -40
72 -101 96 -135 l42 -63 -36 -17 c-19 -9 -36 -15 -38 -12 -2 2 -23 31 -47 64
-24 33 -68 88 -98 123 -30 35 -52 66 -48 69 10 11 61 41 68 42 5 1 32 -32 61
-71z m-348 -94 c70 -86 129 -163 132 -170 8 -22 -17 -83 -44 -104 -15 -12 -41
-20 -62 -20 -31 0 -45 8 -88 53 -100 103 -203 258 -203 306 0 48 46 91 99 91
40 0 41 -1 166 -156z m4148 47 l82 -16 -1 -35 c-1 -19 -9 -102 -17 -185 -32
-296 -39 -509 -34 -929 3 -226 11 -486 17 -579 7 -92 11 -170 8 -172 -16 -16
-327 122 -458 202 -311 193 -499 421 -604 735 -104 309 -5 644 247 834 202
153 468 204 760 145z m-4450 -41 c14 -11 49 -53 78 -92 29 -40 81 -107 116
-150 59 -71 62 -78 52 -105 -19 -52 -48 -73 -99 -73 -46 0 -49 2 -136 93 -116
119 -174 196 -174 231 0 37 23 79 52 93 57 28 78 29 111 3z m1128 -212 c63
-108 150 -202 197 -212 41 -10 83 15 112 65 19 35 23 37 41 26 22 -13 32 -43
27 -78 -4 -30 -54 -56 -136 -71 l-60 -11 49 -69 c54 -75 56 -83 35 -133 -12
-27 -21 -35 -40 -35 -56 0 -76 17 -111 95 -19 41 -37 75 -40 75 -3 0 -31 -27
-62 -60 -44 -48 -61 -60 -86 -60 -39 0 -67 25 -67 62 0 24 4 28 28 28 48 0
101 20 113 43 29 52 13 96 -87 249 -35 53 -64 101 -64 106 0 5 13 15 29 22 16
6 37 20 47 31 9 10 18 19 19 19 1 0 26 -42 56 -92z m-1270 15 c29 -38 92 -108
140 -158 l87 -90 -13 -32 c-16 -39 -68 -73 -110 -73 -24 0 -42 13 -93 68 -35
37 -86 98 -113 136 -44 62 -49 75 -49 123 0 62 23 93 69 93 24 0 38 -12 82
-67z m685 -8 c22 -55 17 -78 -33 -146 -192 -262 -576 -457 -805 -410 -74 16
-134 60 -160 118 -17 40 -18 51 -8 88 6 23 20 55 30 70 l18 27 33 -48 c18 -27
61 -77 96 -111 56 -57 67 -63 103 -63 57 0 96 23 111 65 10 26 19 35 36 35 56
0 121 47 142 103 9 22 16 27 46 27 55 0 94 25 116 74 18 42 21 44 69 48 60 6
85 26 116 92 35 76 66 87 90 31z m-819 -152 c26 -32 78 -92 115 -134 38 -42
68 -83 68 -91 0 -9 -9 -27 -21 -42 -16 -20 -29 -26 -59 -26 -34 0 -44 7 -99
65 -125 134 -160 216 -111 265 32 32 55 24 107 -37z m-227 -298 c15 -8 38 -31
53 -52 71 -103 -3 -235 -132 -235 -85 0 -148 52 -158 131 -17 129 118 218 237
156z m3890 -191 c0 -32 63 -200 110 -294 146 -290 412 -532 732 -667 37 -15
68 -33 68 -40 0 -6 -23 -37 -52 -68 -52 -57 -138 -115 -171 -115 -42 0 -265
176 -386 305 -165 178 -303 398 -390 624 -30 76 -30 81 -16 128 27 91 105 185
105 127z m-2490 -378 l182 -169 -7 -51 c-14 -110 -86 -245 -185 -347 -117
-120 -253 -186 -359 -176 -30 3 -58 10 -64 16 -8 8 -106 570 -119 681 -3 23 0
25 60 33 34 4 87 17 117 28 57 21 141 89 165 133 7 15 17 25 21 24 3 -2 89
-79 189 -172z m2414 20 c175 -368 385 -617 707 -838 l24 -17 -81 -79 c-64 -62
-103 -90 -174 -126 -51 -25 -103 -46 -116 -46 -28 0 -105 94 -448 545 -155
203 -206 277 -206 298 0 37 43 144 93 232 42 73 115 175 126 175 3 0 37 -65
75 -144z m-2142 -217 c30 -16 58 -86 58 -149 1 -247 -217 -517 -479 -594 -48
-14 -61 -14 -124 -1 -134 28 -201 77 -195 144 3 32 6 36 28 32 14 -2 61 -4
106 -5 74 -1 86 2 155 36 128 64 240 173 316 306 39 70 73 168 73 213 0 23 5
29 21 29 11 0 29 -5 41 -11z m2143 -509 l313 -404 -225 -221 c-124 -121 -229
-221 -232 -223 -4 -1 -53 41 -109 94 -183 173 -309 367 -366 566 -27 92 -50
273 -38 294 13 22 327 303 336 301 5 -2 149 -185 321 -407z m-2000 118 c71
-41 75 -45 81 -87 12 -76 -2 -290 -25 -374 -44 -166 -150 -356 -276 -495 l-58
-63 -26 43 c-23 39 -281 573 -281 582 0 3 30 14 67 26 85 27 105 38 182 96 73
55 169 170 212 255 16 33 34 59 39 59 6 0 44 -19 85 -42z m1275 16 c25 -15 28
-23 34 -96 27 -328 187 -619 475 -865 l75 -63 32 31 c29 28 35 30 50 18 33
-27 45 -75 33 -124 -20 -79 -72 -111 -154 -96 -61 11 -76 23 -172 128 -264
292 -398 526 -474 827 -19 78 -21 97 -11 158 5 38 16 75 22 83 16 20 55 19 90
-1z m-1042 -39 c79 -67 97 -206 49 -388 -70 -266 -211 -515 -447 -791 -136
-159 -235 -117 -208 89 9 68 26 125 37 125 4 0 15 -16 24 -35 9 -19 22 -35 28
-35 31 0 213 234 276 356 94 182 126 321 121 532 l-3 144 25 14 c37 20 65 17
98 -11z m912 -222 c0 -30 62 -200 110 -298 84 -175 208 -350 382 -538 50 -54
88 -100 85 -103 -3 -3 -89 -39 -192 -79 l-187 -74 -37 29 c-49 40 -140 144
-196 223 -87 125 -134 257 -159 452 l-14 110 57 120 c41 85 68 130 95 153 37
32 56 34 56 5z m-590 -225 l64 -56 -17 -90 c-45 -237 -131 -412 -310 -635 -59
-73 -75 -87 -92 -82 -11 4 -102 12 -202 19 -100 6 -185 15 -189 19 -4 3 22 39
58 79 219 246 386 553 449 826 11 48 22 93 25 101 3 9 28 -9 77 -55 39 -38
101 -95 137 -126z m285 10 c53 -44 65 -60 71 -91 3 -22 2 -43 -2 -47 -5 -5
-36 -19 -69 -32 l-60 -25 -65 22 -65 22 2 47 c1 44 5 51 60 101 32 30 59 54
61 55 2 0 32 -24 67 -52z m-121 -210 l39 -20 -6 -316 c-4 -173 -7 -486 -7
-694 0 -258 -3 -378 -11 -378 -21 0 -157 110 -231 188 -115 121 -199 277 -243
454 l-17 66 68 88 c149 195 227 338 284 519 17 55 33 106 36 113 5 15 28 10
88 -20z m214 -47 c33 -207 130 -392 295 -555 l89 -89 -21 -81 c-47 -179 -175
-379 -321 -505 -74 -64 -177 -137 -184 -130 -2 2 -2 317 1 700 l6 697 46 20
c74 32 75 32 89 -57z"/>
<path d="M6907 4853 c-3 -5 -16 -57 -31 -118 -98 -417 -99 -683 -5 -1165 38
-191 50 -232 64 -218 3 3 -1 79 -9 169 -39 406 -41 895 -6 1201 12 105 12 138
1 138 -6 0 -12 -3 -14 -7z"/>
</g>
</svg>
